<svg width="107" height="27" viewBox="0 0 107 27" fill="none" xmlns="http://www.w3.org/2000/svg">
<rect x="0.05" y="0.05" width="106.9" height="26.9" rx="9.95" fill="#F7F7F7"/>
<path d="M38.3541 12.0311H37.75V12H31V15H35.2386C34.6202 16.7464 32.9586 18 31 18C28.5149 18 26.5 15.9851 26.5 13.5C26.5 11.0149 28.5149 9 31 9C32.1471 9 33.1907 9.43275 33.9854 10.1396L36.1067 8.01825C34.7672 6.76987 32.9755 6 31 6C26.8581 6 23.5 9.35812 23.5 13.5C23.5 17.6419 26.8581 21 31 21C35.1419 21 38.5 17.6419 38.5 13.5C38.5 12.9971 38.4482 12.5062 38.3541 12.0311Z" fill="#FFC107"/>
<path d="M24.3647 10.0091L26.8289 11.8162C27.4956 10.1655 29.1104 9 31 9C32.1471 9 33.1907 9.43275 33.9854 10.1396L36.1067 8.01825C34.7672 6.76987 32.9755 6 31 6C28.1192 6 25.621 7.62637 24.3647 10.0091Z" fill="#FF3D00"/>
<path d="M31 21C32.9372 21 34.6975 20.2586 36.0284 19.053L33.7071 17.0888C32.9288 17.6807 31.9778 18.0008 31 18C29.0492 18 27.3929 16.7561 26.7689 15.0203L24.3231 16.9046C25.5644 19.3335 28.0851 21 31 21Z" fill="#4CAF50"/>
<path d="M38.3541 12.0311H37.75V11.9999H31V14.9999H35.2386C34.9428 15.8311 34.41 16.5574 33.706 17.0891L33.7071 17.0883L36.0284 19.0526C35.8641 19.2018 38.5 17.2499 38.5 13.4999C38.5 12.9971 38.4482 12.5062 38.3541 12.0311Z" fill="#1976D2"/>
<path d="M52.31 14.1H53.49V16.49C52.83 17.2167 51.8867 17.58 50.66 17.58C49.6267 17.58 48.76 17.24 48.06 16.56C47.3667 15.88 47.02 15.02 47.02 13.98C47.02 12.94 47.3733 12.0733 48.08 11.38C48.7933 10.6867 49.6533 10.34 50.66 10.34C51.6667 10.34 52.5033 10.6333 53.17 11.22L52.54 12.12C52.2667 11.8867 51.99 11.7267 51.71 11.64C51.4367 11.5467 51.1167 11.5 50.75 11.5C50.0433 11.5 49.45 11.73 48.97 12.19C48.49 12.6433 48.25 13.2433 48.25 13.99C48.25 14.73 48.4833 15.3267 48.95 15.78C49.4167 16.2267 49.98 16.45 50.64 16.45C51.3067 16.45 51.8633 16.3067 52.31 16.02V14.1ZM56.1184 16.1C56.4384 16.42 56.8417 16.58 57.3284 16.58C57.815 16.58 58.215 16.42 58.5284 16.1C58.8484 15.7733 59.0084 15.3533 59.0084 14.84C59.0084 14.3267 58.8484 13.91 58.5284 13.59C58.215 13.2633 57.815 13.1 57.3284 13.1C56.8417 13.1 56.4384 13.2633 56.1184 13.59C55.805 13.91 55.6484 14.3267 55.6484 14.84C55.6484 15.3533 55.805 15.7733 56.1184 16.1ZM59.3284 16.79C58.795 17.3167 58.1284 17.58 57.3284 17.58C56.5284 17.58 55.8617 17.3167 55.3284 16.79C54.795 16.2567 54.5284 15.6067 54.5284 14.84C54.5284 14.0733 54.795 13.4267 55.3284 12.9C55.8617 12.3667 56.5284 12.1 57.3284 12.1C58.1284 12.1 58.795 12.3667 59.3284 12.9C59.8617 13.4267 60.1284 14.0733 60.1284 14.84C60.1284 15.6067 59.8617 16.2567 59.3284 16.79ZM62.6418 16.1C62.9618 16.42 63.3651 16.58 63.8518 16.58C64.3385 16.58 64.7385 16.42 65.0518 16.1C65.3718 15.7733 65.5318 15.3533 65.5318 14.84C65.5318 14.3267 65.3718 13.91 65.0518 13.59C64.7385 13.2633 64.3385 13.1 63.8518 13.1C63.3651 13.1 62.9618 13.2633 62.6418 13.59C62.3285 13.91 62.1718 14.3267 62.1718 14.84C62.1718 15.3533 62.3285 15.7733 62.6418 16.1ZM65.8518 16.79C65.3185 17.3167 64.6518 17.58 63.8518 17.58C63.0518 17.58 62.3851 17.3167 61.8518 16.79C61.3185 16.2567 61.0518 15.6067 61.0518 14.84C61.0518 14.0733 61.3185 13.4267 61.8518 12.9C62.3851 12.3667 63.0518 12.1 63.8518 12.1C64.6518 12.1 65.3185 12.3667 65.8518 12.9C66.3851 13.4267 66.6518 14.0733 66.6518 14.84C66.6518 15.6067 66.3851 16.2567 65.8518 16.79ZM72.8452 12.18V16.82C72.8452 17.76 72.5886 18.4633 72.0752 18.93C71.5686 19.4033 70.9152 19.64 70.1152 19.64C69.3152 19.64 68.5919 19.39 67.9452 18.89L68.4752 18.04C68.9952 18.4333 69.5186 18.63 70.0452 18.63C70.5786 18.63 70.9986 18.4933 71.3052 18.22C71.6186 17.9467 71.7752 17.51 71.7752 16.91V16.23C71.6086 16.5433 71.3686 16.7933 71.0552 16.98C70.7486 17.1667 70.4019 17.26 70.0152 17.26C69.3086 17.26 68.7286 17.0133 68.2752 16.52C67.8219 16.0267 67.5952 15.4133 67.5952 14.68C67.5952 13.9467 67.8219 13.3333 68.2752 12.84C68.7286 12.3467 69.3052 12.1 70.0052 12.1C70.7119 12.1 71.2852 12.39 71.7252 12.97V12.18H72.8452ZM68.6952 14.64C68.6952 15.0733 68.8286 15.45 69.0952 15.77C69.3686 16.0833 69.7319 16.24 70.1852 16.24C70.6452 16.24 71.0152 16.0867 71.2952 15.78C71.5819 15.4733 71.7252 15.0933 71.7252 14.64C71.7252 14.18 71.5819 13.7933 71.2952 13.48C71.0086 13.16 70.6386 13 70.1852 13C69.7319 13 69.3686 13.1633 69.0952 13.49C68.8286 13.8167 68.6952 14.2 68.6952 14.64ZM75.5882 17.5H74.4682V10.08H75.5882V17.5ZM82.1623 15.33H77.9923C78.019 15.7167 78.1957 16.03 78.5223 16.27C78.849 16.5033 79.2223 16.62 79.6423 16.62C80.309 16.62 80.8157 16.41 81.1623 15.99L81.8023 16.69C81.229 17.2833 80.4823 17.58 79.5623 17.58C78.8157 17.58 78.179 17.3333 77.6523 16.84C77.1323 16.34 76.8723 15.6733 76.8723 14.84C76.8723 14 77.139 13.3333 77.6723 12.84C78.2057 12.3467 78.8323 12.1 79.5523 12.1C80.279 12.1 80.8957 12.32 81.4023 12.76C81.909 13.1933 82.1623 13.7933 82.1623 14.56V15.33ZM77.9923 14.45H81.0423C81.0423 14.0033 80.9023 13.66 80.6223 13.42C80.3423 13.18 79.9957 13.06 79.5823 13.06C79.1757 13.06 78.809 13.1867 78.4823 13.44C78.1557 13.6867 77.9923 14.0233 77.9923 14.45Z" fill="black"/>
<rect x="0.05" y="0.05" width="106.9" height="26.9" rx="9.95" stroke="black" stroke-width="0.1"/>
</svg>
