<svg width="107" height="28" viewBox="0 0 107 28" fill="none" xmlns="http://www.w3.org/2000/svg">
<rect x="0.05" y="0.05" width="106.9" height="27.9" rx="9.95" fill="#F7F7F7"/>
<path fill-rule="evenodd" clip-rule="evenodd" d="M17 14.0419C17 17.7706 19.7081 20.8713 23.25 21.5V16.0831H21.375V14H23.25V12.3331C23.25 10.4581 24.4581 9.41687 26.1669 9.41687C26.7081 9.41687 27.2919 9.5 27.8331 9.58313V11.5H26.875C25.9581 11.5 25.75 11.9581 25.75 12.5419V14H27.75L27.4169 16.0831H25.75V21.5C29.2919 20.8713 32 17.7712 32 14.0419C32 9.89375 28.625 6.5 24.5 6.5C20.375 6.5 17 9.89375 17 14.0419Z" fill="#1D67BE"/>
<path d="M42.15 12.11V14.03H45.25V15.12H42.15V18H40.97V11.01H45.63L45.62 12.11H42.15ZM50.9305 18H49.9105V17.29C49.4705 17.8167 48.8805 18.08 48.1405 18.08C47.5872 18.08 47.1272 17.9233 46.7605 17.61C46.4005 17.2967 46.2205 16.88 46.2205 16.36C46.2205 15.8333 46.4139 15.44 46.8005 15.18C47.1872 14.92 47.7105 14.79 48.3705 14.79H49.8205V14.59C49.8205 13.8833 49.4272 13.53 48.6405 13.53C48.1472 13.53 47.6339 13.71 47.1005 14.07L46.6005 13.37C47.2472 12.8567 47.9805 12.6 48.8005 12.6C49.4272 12.6 49.9372 12.76 50.3305 13.08C50.7305 13.3933 50.9305 13.89 50.9305 14.57V18ZM49.8105 16.02V15.57H48.5505C47.7439 15.57 47.3405 15.8233 47.3405 16.33C47.3405 16.59 47.4405 16.79 47.6405 16.93C47.8405 17.0633 48.1172 17.13 48.4705 17.13C48.8305 17.13 49.1439 17.03 49.4105 16.83C49.6772 16.63 49.8105 16.36 49.8105 16.02ZM54.8497 18.08C54.1097 18.08 53.473 17.83 52.9397 17.33C52.4064 16.8233 52.1397 16.1633 52.1397 15.35C52.1397 14.5367 52.4164 13.8767 52.9697 13.37C53.5297 12.8567 54.2097 12.6 55.0097 12.6C55.8097 12.6 56.4864 12.8767 57.0397 13.43L56.3797 14.24C55.9197 13.84 55.4564 13.64 54.9897 13.64C54.523 13.64 54.1164 13.7967 53.7697 14.11C53.4297 14.4167 53.2597 14.8167 53.2597 15.31C53.2597 15.7967 53.4297 16.21 53.7697 16.55C54.1097 16.89 54.5264 17.06 55.0197 17.06C55.5197 17.06 55.9897 16.8333 56.4297 16.38L57.0897 17.1C56.443 17.7533 55.6964 18.08 54.8497 18.08ZM63.2014 15.83H59.0314C59.0581 16.2167 59.2347 16.53 59.5614 16.77C59.8881 17.0033 60.2614 17.12 60.6814 17.12C61.3481 17.12 61.8547 16.91 62.2014 16.49L62.8414 17.19C62.2681 17.7833 61.5214 18.08 60.6014 18.08C59.8547 18.08 59.2181 17.8333 58.6914 17.34C58.1714 16.84 57.9114 16.1733 57.9114 15.34C57.9114 14.5 58.1781 13.8333 58.7114 13.34C59.2447 12.8467 59.8714 12.6 60.5914 12.6C61.3181 12.6 61.9347 12.82 62.4414 13.26C62.9481 13.6933 63.2014 14.2933 63.2014 15.06V15.83ZM59.0314 14.95H62.0814C62.0814 14.5033 61.9414 14.16 61.6614 13.92C61.3814 13.68 61.0347 13.56 60.6214 13.56C60.2147 13.56 59.8481 13.6867 59.5214 13.94C59.1947 14.1867 59.0314 14.5233 59.0314 14.95ZM67.283 12.6C67.9964 12.6 68.6064 12.8467 69.113 13.34C69.6197 13.8333 69.873 14.49 69.873 15.31C69.873 16.13 69.6197 16.7967 69.113 17.31C68.613 17.8233 68.0264 18.08 67.353 18.08C66.6864 18.08 66.0864 17.7867 65.553 17.2V18H64.433V10.58H65.553V13.61C65.993 12.9367 66.5697 12.6 67.283 12.6ZM65.533 15.35C65.533 15.8567 65.6864 16.2733 65.993 16.6C66.2997 16.92 66.673 17.08 67.113 17.08C67.553 17.08 67.9364 16.92 68.263 16.6C68.5897 16.28 68.753 15.8667 68.753 15.36C68.753 14.8467 68.593 14.4233 68.273 14.09C67.953 13.75 67.5697 13.58 67.123 13.58C66.6764 13.58 66.2997 13.75 65.993 14.09C65.6864 14.4233 65.533 14.8433 65.533 15.35ZM72.3918 16.6C72.7118 16.92 73.1151 17.08 73.6018 17.08C74.0885 17.08 74.4885 16.92 74.8018 16.6C75.1218 16.2733 75.2818 15.8533 75.2818 15.34C75.2818 14.8267 75.1218 14.41 74.8018 14.09C74.4885 13.7633 74.0885 13.6 73.6018 13.6C73.1151 13.6 72.7118 13.7633 72.3918 14.09C72.0785 14.41 71.9218 14.8267 71.9218 15.34C71.9218 15.8533 72.0785 16.2733 72.3918 16.6ZM75.6018 17.29C75.0685 17.8167 74.4018 18.08 73.6018 18.08C72.8018 18.08 72.1351 17.8167 71.6018 17.29C71.0685 16.7567 70.8018 16.1067 70.8018 15.34C70.8018 14.5733 71.0685 13.9267 71.6018 13.4C72.1351 12.8667 72.8018 12.6 73.6018 12.6C74.4018 12.6 75.0685 12.8667 75.6018 13.4C76.1351 13.9267 76.4018 14.5733 76.4018 15.34C76.4018 16.1067 76.1351 16.7567 75.6018 17.29ZM78.9152 16.6C79.2352 16.92 79.6386 17.08 80.1252 17.08C80.6119 17.08 81.0119 16.92 81.3252 16.6C81.6452 16.2733 81.8052 15.8533 81.8052 15.34C81.8052 14.8267 81.6452 14.41 81.3252 14.09C81.0119 13.7633 80.6119 13.6 80.1252 13.6C79.6386 13.6 79.2352 13.7633 78.9152 14.09C78.6019 14.41 78.4452 14.8267 78.4452 15.34C78.4452 15.8533 78.6019 16.2733 78.9152 16.6ZM82.1252 17.29C81.5919 17.8167 80.9252 18.08 80.1252 18.08C79.3252 18.08 78.6586 17.8167 78.1252 17.29C77.5919 16.7567 77.3252 16.1067 77.3252 15.34C77.3252 14.5733 77.5919 13.9267 78.1252 13.4C78.6586 12.8667 79.3252 12.6 80.1252 12.6C80.9252 12.6 81.5919 12.8667 82.1252 13.4C82.6586 13.9267 82.9252 14.5733 82.9252 15.34C82.9252 16.1067 82.6586 16.7567 82.1252 17.29ZM85.3187 18H84.1987V10.58H85.3187V14.94L87.4787 12.68H88.9187L86.8987 14.79L89.0687 18H87.7087L86.1287 15.67L85.3187 16.49V18Z" fill="black"/>
<rect x="0.05" y="0.05" width="106.9" height="27.9" rx="9.95" stroke="black" stroke-width="0.1"/>
</svg>
