<svg width="98" height="110" viewBox="0 0 98 110" fill="none" xmlns="http://www.w3.org/2000/svg">
<g filter="url(#filter0_d_402_913)">
<rect x="4" width="90" height="102" rx="8" fill="#626171" shape-rendering="crispEdges"/>
<path d="M59.957 40C59.957 46.0758 55.0805 51 49.0635 51C43.0466 51 38.1701 46.0758 38.1701 40C38.1701 33.9251 43.0466 29 49.0635 29C55.0805 29 59.957 33.9251 59.957 40ZM47.7955 59.8688L44.9785 55.125H53.1486L50.3316 59.8688L53.1656 70.5164L56.5273 56.6633C63.0974 57.6945 68 65.9448 68 72.8713C68 73 68 72.8713 68 73L30 72.614C30 72.614 30 72.614 30 71.9708C30 65.0442 35.0289 57.6945 41.5998 56.6633L44.9615 70.5164L47.7955 59.8688Z" fill="#F6F6F6"/>
</g>
<defs>
<filter id="filter0_d_402_913" x="0" y="0" width="98" height="110" filterUnits="userSpaceOnUse" color-interpolation-filters="sRGB">
<feFlood flood-opacity="0" result="BackgroundImageFix"/>
<feColorMatrix in="SourceAlpha" type="matrix" values="0 0 0 0 0 0 0 0 0 0 0 0 0 0 0 0 0 0 127 0" result="hardAlpha"/>
<feOffset dy="4"/>
<feGaussianBlur stdDeviation="2"/>
<feComposite in2="hardAlpha" operator="out"/>
<feColorMatrix type="matrix" values="0 0 0 0 0 0 0 0 0 0 0 0 0 0 0 0 0 0 0.25 0"/>
<feBlend mode="normal" in2="BackgroundImageFix" result="effect1_dropShadow_402_913"/>
<feBlend mode="normal" in="SourceGraphic" in2="effect1_dropShadow_402_913" result="shape"/>
</filter>
</defs>
</svg>
