<svg width="189" height="32" viewBox="0 0 189 32" fill="none" xmlns="http://www.w3.org/2000/svg">
<path d="M189 0H0V31.7747H189V0Z" fill="white"/>
<path d="M24.3875 11.3684L24.1229 10.877C24.0322 10.7107 23.9037 10.5822 23.7449 10.4839C23.5861 10.3856 23.4123 10.3327 23.2081 10.3327H19.4811V20.9772C19.4811 21.1964 19.5415 21.4005 19.6625 21.5744C19.7835 21.7483 19.9422 21.8768 20.1463 21.96L20.4261 22.0658H17.5759L17.8557 21.96C18.0522 21.8768 18.211 21.7483 18.3395 21.5744C18.468 21.4005 18.5209 21.1964 18.5209 20.9772V10.3327H14.7939C14.5973 10.3327 14.4159 10.3856 14.2571 10.4839C14.0983 10.5822 13.9698 10.7183 13.8791 10.877L13.6145 11.3684L13.7203 9.82617H24.2741L24.3875 11.3684Z" fill="#1E194E"/>
<path d="M35.9464 21.6492C36.0598 21.808 36.1959 21.9214 36.3773 21.9894L36.6193 22.0801H34.132L34.3739 21.9894C34.5478 21.9214 34.6915 21.808 34.8049 21.6492C34.9183 21.4905 34.9712 21.3166 34.9712 21.1125V16.705H27.7741V21.1125C27.7741 21.309 27.827 21.4905 27.9404 21.6492C28.0538 21.808 28.1974 21.9214 28.3713 21.9894L28.6132 22.0801H26.126L26.3679 21.9894C26.5418 21.9214 26.6854 21.808 26.7988 21.6492C26.9122 21.4905 26.9651 21.3166 26.9651 21.1125V12.2899C26.9651 12.0934 26.9122 11.9119 26.7988 11.7532C26.6854 11.5944 26.5418 11.481 26.3679 11.413L26.126 11.3223H28.6132L28.3713 11.413C28.1974 11.481 28.0538 11.5944 27.9404 11.7532C27.827 11.9119 27.7741 12.0858 27.7741 12.2899V16.2665H34.9712V12.2899C34.9712 12.0934 34.9183 11.9119 34.8049 11.7532C34.6915 11.5944 34.5478 11.481 34.3739 11.413L34.132 11.3223H36.6193L36.3773 11.413C36.2035 11.481 36.0598 11.5944 35.9464 11.7532C35.833 11.9119 35.7801 12.0858 35.7801 12.2899V21.1125C35.7801 21.309 35.833 21.4905 35.9464 21.6492Z" fill="#1E194E"/>
<path d="M45.7221 20.2884L45.2307 22.0726H38.3359L38.5779 21.9819C38.7517 21.9138 38.8954 21.8004 39.0088 21.6417C39.1222 21.4829 39.1751 21.309 39.1751 21.1049V12.2899C39.1751 12.0934 39.1222 11.9119 39.0088 11.7532C38.8954 11.5944 38.7517 11.481 38.5779 11.413L38.3359 11.3223H44.9509L45.0417 12.6679L44.8149 12.2446C44.7317 12.0934 44.6183 11.9724 44.4747 11.8893C44.331 11.7985 44.1723 11.7607 44.0135 11.7607H40.0067V16.3119H42.5771C42.7661 16.3119 42.9324 16.2589 43.0836 16.1607C43.2348 16.0624 43.3482 15.9339 43.4314 15.7675L43.5372 15.5559V17.3929L43.4314 17.1813C43.3482 17.0149 43.2348 16.8864 43.0836 16.7881C42.9324 16.6899 42.7661 16.6369 42.5771 16.6369H40.0067V21.6114H44.1193C44.6183 21.6114 45.0114 21.4073 45.2911 20.9991L45.7221 20.2884Z" fill="#1E194E"/>
<path d="M63.8202 22.0414H61.9831L59.0574 16.704C58.8835 16.4016 58.6189 16.2504 58.2711 16.2504H55.4513V20.9603C55.4513 21.1796 55.5117 21.3837 55.6327 21.5576C55.7537 21.7314 55.9124 21.86 56.1165 21.9431L56.3963 22.049H53.5461L53.8259 21.9431C54.0224 21.86 54.1812 21.7314 54.3097 21.5576C54.4382 21.3837 54.4911 21.1871 54.4911 20.9603V10.8904C54.4911 10.6712 54.4307 10.467 54.3097 10.2932C54.1887 10.1193 54.0224 9.99076 53.8259 9.9076L53.5461 9.80176H57.9385C58.8003 9.80176 59.511 9.88492 60.0553 10.0588C60.5996 10.2251 61.0381 10.4595 61.3481 10.7468C61.6656 11.0416 61.8773 11.3818 61.9982 11.7674C62.1192 12.1529 62.1721 12.5763 62.1721 13.0223C62.1721 13.3701 62.1343 13.7103 62.0587 14.0429C61.9831 14.3756 61.847 14.678 61.658 14.9426C61.469 15.2072 61.2044 15.4491 60.8718 15.6532C60.5391 15.8573 60.1158 16.0085 59.6017 16.0992C59.6924 16.1219 59.7756 16.1824 59.8361 16.2731C59.8965 16.3638 59.9495 16.4394 59.9873 16.4999C60.1536 16.8023 60.3728 17.2181 60.6601 17.7322C60.9474 18.2538 61.2271 18.7679 61.5068 19.282C61.8243 19.8792 62.157 20.4992 62.5199 21.1569C62.6937 21.4971 62.9659 21.739 63.3439 21.8902L63.8202 22.0414ZM57.9687 15.7364V15.7515C58.3997 15.7515 58.8155 15.7212 59.2086 15.6532C59.6017 15.5927 59.957 15.4642 60.267 15.2676C60.5769 15.0711 60.8264 14.7989 61.0079 14.436C61.1969 14.0732 61.2876 13.6044 61.2876 13.0148C61.2876 12.4326 61.1969 11.9564 61.0079 11.5935C60.8189 11.2306 60.5694 10.9584 60.267 10.7619C59.957 10.5729 59.6017 10.4444 59.201 10.3763C58.8003 10.3158 58.3845 10.278 57.9687 10.278H55.4513V15.7212H57.9687V15.7364Z" fill="#1E194E"/>
<path d="M73.4817 21.9195H73.4439C73.5724 21.8741 73.6631 21.7909 73.716 21.6851C73.7689 21.5717 73.7689 21.4583 73.7236 21.3298L72.1813 17.7766H68.0536L66.5113 21.3298C66.466 21.4432 66.466 21.5566 66.5113 21.67C66.5567 21.7834 66.6399 21.8665 66.7533 21.927L67.101 22.0858H65.0674L65.4151 21.927C65.7553 21.7607 65.9897 21.5112 66.1182 21.171L70.3216 11.3506L74.5552 21.2239C74.6988 21.5944 74.9634 21.859 75.3641 22.0102L75.538 22.0782H73.0507L73.4817 21.9195ZM68.2275 17.3305H71.9923L70.1023 12.9684L68.2275 17.3305Z" fill="#1E194E"/>
<path d="M78.6831 21.6492C78.7965 21.808 78.9401 21.9214 79.114 21.9894L79.3559 22.0801H76.8687L77.1106 21.9894C77.2845 21.9214 77.4281 21.808 77.5415 21.6492C77.6549 21.4905 77.7078 21.3166 77.7078 21.1125V12.2899C77.7078 12.0934 77.6549 11.9119 77.5415 11.7532C77.4281 11.5944 77.2845 11.481 77.1106 11.413L76.8687 11.3223H79.3559L79.114 11.413C78.9401 11.481 78.7965 11.5944 78.6831 11.7532C78.5697 11.9119 78.5167 12.0858 78.5167 12.2899V21.1125C78.5167 21.309 78.5772 21.4905 78.6831 21.6492Z" fill="#1E194E"/>
<path d="M88.4808 20.2728L87.9894 22.057H81.0947L81.3366 21.9662C81.5105 21.8982 81.6542 21.7848 81.7676 21.626C81.881 21.4673 81.9339 21.2934 81.9339 21.0893V12.2743C81.9339 12.0778 81.881 11.8963 81.7676 11.7376C81.6542 11.5788 81.5181 11.4654 81.3366 11.3974L81.0947 11.3066H83.582L83.34 11.3974C83.1662 11.4654 83.0225 11.5788 82.9091 11.7376C82.7957 11.8963 82.7428 12.0702 82.7428 12.2743V21.6185H86.8554C87.3544 21.6185 87.7475 21.4144 88.0272 21.0061L88.4808 20.2728Z" fill="#1E194E"/>
<path d="M99.2616 9.80957L98.9819 9.91541C98.7853 9.99857 98.6265 10.1271 98.498 10.301C98.3695 10.4748 98.3166 10.6714 98.3166 10.8982V21.7695C98.3166 22.5709 98.1352 23.1983 97.7647 23.6519C97.3943 24.098 96.8953 24.4079 96.2678 24.5743C96.6685 24.2341 96.9482 23.8183 97.1221 23.3117C97.296 22.8128 97.3867 22.3062 97.3867 21.7922V10.9058C97.3867 10.6865 97.3262 10.4824 97.2053 10.3085C97.0843 10.1347 96.9255 10.0061 96.7214 9.92297L96.4417 9.81713L99.2616 9.80957Z" fill="#1E194E"/>
<path d="M108.742 11.6987C109.415 11.933 110.005 12.2732 110.519 12.7193C111.033 13.1653 111.449 13.7248 111.759 14.3976C112.076 15.0704 112.228 15.8416 112.228 16.7185C112.228 17.5955 112.069 18.3666 111.759 19.0319C111.441 19.6972 111.033 20.2566 110.519 20.7026C110.005 21.1487 109.415 21.4964 108.742 21.7232C108.07 21.9576 107.374 22.071 106.648 22.071C105.938 22.071 105.242 21.9576 104.569 21.7232C103.889 21.4889 103.299 21.1487 102.785 20.7026C102.271 20.2566 101.855 19.6972 101.545 19.0319C101.228 18.3666 101.077 17.5955 101.077 16.7185C101.077 15.8416 101.235 15.0704 101.545 14.3976C101.863 13.7248 102.271 13.1653 102.785 12.7193C103.299 12.2732 103.897 11.9255 104.569 11.6987C105.242 11.4643 105.938 11.3509 106.648 11.3509C107.374 11.3434 108.07 11.4643 108.742 11.6987ZM108.614 21.247C109.204 20.9824 109.703 20.6346 110.118 20.1886C110.534 19.7425 110.852 19.2209 111.071 18.6236C111.29 18.0264 111.404 17.3914 111.404 16.7261C111.404 16.0608 111.29 15.4258 111.071 14.8285C110.852 14.2313 110.534 13.7021 110.118 13.2636C109.703 12.8176 109.204 12.4698 108.614 12.2052C108.024 11.9406 107.367 11.8121 106.641 11.8121C105.908 11.8121 105.242 11.9406 104.653 12.2052C104.063 12.4698 103.564 12.8176 103.148 13.2636C102.732 13.7096 102.415 14.2313 102.196 14.8285C101.976 15.4258 101.863 16.0608 101.863 16.7261C101.863 17.3914 101.976 18.0264 102.196 18.6236C102.415 19.2284 102.732 19.7501 103.148 20.1886C103.564 20.6346 104.063 20.9824 104.653 21.247C105.242 21.5116 105.9 21.6401 106.641 21.6401C107.374 21.6401 108.024 21.504 108.614 21.247Z" fill="#1E194E"/>
<path d="M123.446 11.3298L123.181 11.4508C123.015 11.5339 122.887 11.6473 122.788 11.7985C122.69 11.9497 122.637 12.1161 122.637 12.2899V18.4891C122.637 18.9805 122.546 19.4417 122.357 19.8802C122.168 20.3187 121.911 20.6967 121.586 21.0293C121.261 21.3544 120.876 21.6114 120.437 21.8004C119.999 21.9894 119.538 22.0801 119.046 22.0801H118.419C117.927 22.0801 117.466 21.9894 117.028 21.8004C116.589 21.6114 116.211 21.3544 115.879 21.0293C115.553 20.7042 115.296 20.3187 115.107 19.8802C114.918 19.4417 114.828 18.9805 114.828 18.4891V12.2899C114.828 12.0934 114.775 11.9119 114.661 11.7532C114.548 11.5944 114.404 11.481 114.23 11.413L113.989 11.3223H116.476L116.234 11.413C116.06 11.481 115.916 11.5944 115.803 11.7532C115.69 11.9119 115.637 12.0858 115.637 12.2899V18.4891C115.637 18.9654 115.72 19.3963 115.879 19.7819C116.045 20.1675 116.249 20.5001 116.498 20.7723C116.748 21.0444 117.035 21.2637 117.345 21.4149C117.663 21.5661 117.965 21.6417 118.252 21.6417H119.371C119.757 21.6417 120.12 21.5509 120.46 21.3695C120.8 21.1881 121.095 20.9461 121.352 20.6513C121.609 20.3565 121.813 20.0163 121.957 19.6458C122.1 19.2754 122.176 18.8898 122.176 18.5118V12.3126C122.176 12.1387 122.131 11.9724 122.025 11.8212C121.927 11.67 121.798 11.5566 121.632 11.4735L121.367 11.3525L123.446 11.3298Z" fill="#1E194E"/>
<path d="M134.128 22.0575H132.518L129.963 17.3854C129.812 17.1208 129.585 16.9847 129.282 16.9847H126.818V21.1125C126.818 21.309 126.871 21.4905 126.984 21.6492C127.097 21.808 127.241 21.9214 127.415 21.9894L127.657 22.0801H125.17L125.412 21.9894C125.585 21.9214 125.729 21.808 125.843 21.6492C125.956 21.4905 126.009 21.3166 126.009 21.1125V12.2899C126.009 12.0934 125.956 11.9119 125.843 11.7532C125.729 11.5944 125.585 11.481 125.412 11.413L125.17 11.3223H129.018C129.774 11.3223 130.394 11.3979 130.877 11.5415C131.354 11.6851 131.732 11.8893 132.004 12.1463C132.276 12.4033 132.473 12.7057 132.571 13.0459C132.677 13.3937 132.73 13.7566 132.73 14.1421C132.73 14.4597 132.699 14.7545 132.631 15.0418C132.563 15.3291 132.45 15.5937 132.284 15.828C132.117 16.0699 131.883 16.2741 131.596 16.4479C131.301 16.6218 130.93 16.7503 130.477 16.8335C130.56 16.8562 130.628 16.9091 130.688 16.9847C130.749 17.0603 130.787 17.1283 130.809 17.1888C130.877 17.3173 130.968 17.4761 131.074 17.6575C131.18 17.8465 131.293 18.0507 131.407 18.2699C131.52 18.4891 131.649 18.7159 131.777 18.9503C131.906 19.1847 132.027 19.4115 132.148 19.6307C132.427 20.1523 132.722 20.7042 133.04 21.2788C133.198 21.5812 133.448 21.8004 133.773 21.9289L134.128 22.0575ZM128.995 16.5311C129.365 16.5311 129.728 16.5009 130.084 16.4404C130.431 16.3799 130.741 16.2665 131.014 16.1002C131.278 15.9339 131.497 15.6919 131.664 15.382C131.83 15.072 131.906 14.6638 131.906 14.1497C131.906 13.6356 131.822 13.2274 131.664 12.9174C131.497 12.6075 131.286 12.3655 131.014 12.1992C130.741 12.0329 130.431 11.9195 130.084 11.859C129.736 11.7985 129.373 11.7683 128.995 11.7683H126.788V16.5311H128.995V16.5311Z" fill="#1E194E"/>
<path d="M145.613 11.3808L145.348 11.5018C145.182 11.5849 145.053 11.6983 144.955 11.8495C144.857 12.0007 144.804 12.1671 144.804 12.3409V22.1085L137.123 12.3258V21.1483C137.123 21.3222 137.168 21.4885 137.274 21.6397C137.372 21.7909 137.501 21.9043 137.667 21.9875L137.932 22.1085H135.898L136.163 21.9875C136.321 21.9043 136.457 21.7909 136.556 21.6397C136.654 21.4885 136.707 21.3222 136.707 21.1483V12.3258C136.707 12.1519 136.662 11.9856 136.556 11.8344C136.457 11.6832 136.329 11.5698 136.163 11.4867L135.898 11.3657H137.418L144.38 20.2185V12.3107C144.38 12.1368 144.327 11.9705 144.229 11.8193C144.131 11.6681 144.002 11.5547 143.836 11.4715L143.571 11.3506L145.613 11.3808Z" fill="#1E194E"/>
<path d="M154.707 20.2884L154.216 22.0726H147.321L147.563 21.9819C147.737 21.9138 147.88 21.8004 147.994 21.6417C148.107 21.4829 148.16 21.309 148.16 21.1049V12.2899C148.16 12.0934 148.107 11.9119 147.994 11.7532C147.88 11.5944 147.737 11.481 147.563 11.413L147.321 11.3223H153.936L154.027 12.6679L153.8 12.2446C153.717 12.0934 153.603 11.9724 153.46 11.8893C153.316 11.8061 153.157 11.7607 152.999 11.7607H148.992V16.3119H151.562C151.751 16.3119 151.918 16.2589 152.069 16.1607C152.22 16.0624 152.333 15.9339 152.416 15.7675L152.522 15.5559V17.3929L152.416 17.1813C152.333 17.0149 152.22 16.8864 152.069 16.7881C151.918 16.6899 151.744 16.6369 151.562 16.6369H148.992V21.6114H153.104C153.603 21.6114 153.997 21.4073 154.276 20.9991L154.707 20.2884Z" fill="#1E194E"/>
<path d="M166.734 11.3657L166.492 11.4715C166.175 11.6076 165.918 11.8269 165.721 12.1217L162.062 17.6556V21.1181C162.062 21.3147 162.115 21.4961 162.229 21.6549C162.342 21.8136 162.478 21.927 162.659 21.9951L162.901 22.0858H160.414L160.656 21.9951C160.83 21.927 160.974 21.8136 161.087 21.6549C161.2 21.4961 161.253 21.3222 161.253 21.1181V17.6329L157.594 12.1217C157.383 11.7966 157.088 11.5623 156.702 11.4186L156.528 11.3506H159.016L158.494 11.5396C158.426 11.5623 158.381 11.6152 158.35 11.6908C158.32 11.7664 158.335 11.8344 158.388 11.8949L161.851 17.1264L165.283 11.9251C165.321 11.8647 165.321 11.8042 165.298 11.7361C165.275 11.6681 165.23 11.6227 165.177 11.5925L164.648 11.3506L166.734 11.3657Z" fill="#1E194E"/>
<path d="M172.443 16.1456C172.79 16.3346 173.146 16.5161 173.493 16.6975C173.841 16.8789 174.159 17.0831 174.431 17.3174C174.703 17.5518 174.93 17.8239 175.096 18.1415C175.262 18.459 175.353 18.8445 175.353 19.2981C175.353 19.7064 175.247 20.0844 175.036 20.4246C174.824 20.7723 174.544 21.0672 174.189 21.3091C173.834 21.551 173.425 21.7476 172.964 21.8837C172.503 22.0273 172.019 22.0953 171.52 22.0953C171.15 22.0953 170.734 22.0424 170.273 21.9441C169.812 21.8459 169.343 21.6039 168.859 21.2184C168.829 21.1806 168.776 21.1655 168.723 21.1655C168.64 21.1655 168.579 21.2033 168.526 21.2864L168.421 21.4603V19.8878L168.753 20.4473C168.897 20.6665 169.071 20.8555 169.283 21.0143C169.494 21.173 169.721 21.3015 169.97 21.3998C170.22 21.4981 170.485 21.5661 170.749 21.6115C171.014 21.6493 171.271 21.672 171.52 21.672C171.891 21.672 172.261 21.6191 172.616 21.5208C172.972 21.4225 173.289 21.2713 173.569 21.0747C173.849 20.8782 174.076 20.6287 174.242 20.3339C174.408 20.039 174.499 19.6913 174.499 19.3133C174.499 19.0411 174.416 18.7992 174.257 18.5799C174.098 18.3607 173.879 18.1566 173.622 17.9676C173.357 17.7786 173.07 17.6047 172.745 17.4459C172.427 17.2796 172.102 17.1133 171.792 16.9394C171.445 16.7504 171.089 16.5614 170.726 16.3724C170.364 16.1834 170.038 15.9717 169.736 15.7525C169.441 15.5333 169.192 15.2838 169.003 15.0192C168.814 14.7546 168.715 14.4446 168.715 14.0893C168.715 13.6811 168.806 13.3106 168.98 12.9704C169.154 12.6302 169.396 12.3429 169.698 12.1161C170.001 11.8818 170.364 11.7003 170.795 11.5718C171.218 11.4433 171.687 11.3828 172.186 11.3828C172.526 11.3828 172.866 11.4206 173.221 11.5038C173.569 11.5869 173.902 11.7003 174.219 11.8515C174.242 11.8667 174.28 11.8667 174.325 11.8667C174.408 11.8667 174.469 11.8289 174.499 11.7608L174.635 11.534V13.1065L174.446 12.7739C174.189 12.3429 173.864 12.0708 173.463 11.9574C173.063 11.844 172.639 11.7911 172.186 11.7911C171.823 11.7911 171.482 11.8364 171.15 11.9196C170.825 12.0103 170.545 12.1313 170.311 12.29C170.076 12.4488 169.895 12.6302 169.751 12.8419C169.608 13.0536 169.54 13.2879 169.54 13.545C169.54 13.9079 169.638 14.2103 169.827 14.4673C170.023 14.7168 170.258 14.936 170.545 15.1326C170.832 15.3216 171.142 15.503 171.49 15.6542C171.838 15.813 172.163 15.9717 172.48 16.1381L172.443 16.1456Z" fill="#1E194E"/>
</svg>
