<svg width="32" height="21" viewBox="0 0 32 21" fill="none" xmlns="http://www.w3.org/2000/svg">
<path d="M31.5883 9.37092C31.3201 12.5592 26.6629 20.0565 19.5865 20.2981C10.3218 19.68 26.6948 8.12402 26.6948 8.12402C26.6948 8.12402 30.9098 8.3052 31.5883 9.37092Z" fill="#898585"/>
<path d="M23.5772 16.4435C28.0357 16.4435 31.65 12.8292 31.65 8.37068C31.65 3.91218 28.0357 0.297852 23.5772 0.297852C19.1187 0.297852 15.5044 3.91218 15.5044 8.37068C15.5044 12.8292 19.1187 16.4435 23.5772 16.4435Z" fill="#898585"/>
<path d="M20.041 3.9707H0.38916V11.6492H20.041V3.9707Z" fill="#4C4C4C"/>
<path d="M19.5882 20.2975C24.0967 20.2975 27.7516 16.6426 27.7516 12.1341C27.7516 7.62559 24.0967 3.9707 19.5882 3.9707C15.0797 3.9707 11.4248 7.62559 11.4248 12.1341C11.4248 16.6426 15.0797 20.2975 19.5882 20.2975Z" fill="#4C4C4C"/>
<path d="M20.041 3.97103H0.38916L4.06234 0.297852H23.7142L20.041 3.97103Z" fill="#898585"/>
<path d="M14.0767 3.97103H9.16553L12.8387 0.297852H17.7499L14.0767 3.97103Z" fill="black"/>
<path d="M17.4937 7.01188C19.3478 7.01188 20.8508 5.5089 20.8508 3.65487C20.8508 1.80084 19.3478 0.297852 17.4937 0.297852C15.6397 0.297852 14.1367 1.80084 14.1367 3.65487C14.1367 5.5089 15.6397 7.01188 17.4937 7.01188Z" fill="#E52E2E"/>
</svg>
