<?xml version="1.0" encoding="utf-8"?>
<!-- Generator: Adobe Illustrator 25.2.1, SVG Export Plug-In . SVG Version: 6.00 Build 0)  -->
<svg version="1.1" id="Layer_1" xmlns="http://www.w3.org/2000/svg" xmlns:xlink="http://www.w3.org/1999/xlink" x="0px" y="0px"
	 viewBox="0 0 315 105" style="enable-background:new 0 0 315 105;" xml:space="preserve">
<style type="text/css">
	.st0{fill:#1E194E;}
	.st1{fill:#FFFFFF;}
</style>
<g>
	<g>
		<rect x="32.5" y="31.49" class="st0" width="250" height="42.03"/>
		<g>
			<path class="st1" d="M64.76,46.53l-0.35-0.65c-0.12-0.22-0.29-0.39-0.5-0.52c-0.21-0.13-0.44-0.2-0.71-0.2h-4.93v14.08
				c0,0.29,0.08,0.56,0.24,0.79s0.37,0.4,0.64,0.51l0.37,0.14h-3.77l0.37-0.14c0.26-0.11,0.47-0.28,0.64-0.51S57,59.53,57,59.24
				V45.16h-4.93c-0.26,0-0.5,0.07-0.71,0.2c-0.21,0.13-0.38,0.31-0.5,0.52l-0.35,0.65l0.14-2.04h13.96L64.76,46.53z"/>
			<path class="st1" d="M80.05,60.13c0.15,0.21,0.33,0.36,0.57,0.45l0.32,0.12h-3.29l0.32-0.12c0.23-0.09,0.42-0.24,0.57-0.45
				c0.15-0.21,0.22-0.44,0.22-0.71v-5.83h-9.52v5.83c0,0.26,0.07,0.5,0.22,0.71c0.15,0.21,0.34,0.36,0.57,0.45l0.32,0.12h-3.29
				l0.32-0.12c0.23-0.09,0.42-0.24,0.57-0.45c0.15-0.21,0.22-0.44,0.22-0.71V47.75c0-0.26-0.07-0.5-0.22-0.71
				c-0.15-0.21-0.34-0.36-0.57-0.45l-0.32-0.12h3.29l-0.32,0.12c-0.23,0.09-0.42,0.24-0.57,0.45c-0.15,0.21-0.22,0.44-0.22,0.71
				v5.26h9.52v-5.26c0-0.26-0.07-0.5-0.22-0.71c-0.15-0.21-0.34-0.36-0.57-0.45l-0.32-0.12h3.29l-0.32,0.12
				c-0.23,0.09-0.42,0.24-0.57,0.45c-0.15,0.21-0.22,0.44-0.22,0.71v11.67C79.83,59.68,79.9,59.92,80.05,60.13z"/>
			<path class="st1" d="M92.98,58.33l-0.65,2.36h-9.12l0.32-0.12c0.23-0.09,0.42-0.24,0.57-0.45c0.15-0.21,0.22-0.44,0.22-0.71
				V47.75c0-0.26-0.07-0.5-0.22-0.71c-0.15-0.21-0.34-0.36-0.57-0.45l-0.32-0.12h8.75l0.12,1.78l-0.3-0.56
				c-0.11-0.2-0.26-0.36-0.45-0.47c-0.19-0.12-0.4-0.17-0.61-0.17h-5.3v6.02h3.4c0.25,0,0.47-0.07,0.67-0.2
				c0.2-0.13,0.35-0.3,0.46-0.52l0.14-0.28v2.43l-0.14-0.28c-0.11-0.22-0.26-0.39-0.46-0.52c-0.2-0.13-0.42-0.2-0.67-0.2h-3.4v6.58
				h5.44c0.66,0,1.18-0.27,1.55-0.81L92.98,58.33z"/>
			<path class="st1" d="M116.92,60.65h-2.43l-3.87-7.06c-0.23-0.4-0.58-0.6-1.04-0.6h-3.73v6.23c0,0.29,0.08,0.56,0.24,0.79
				c0.16,0.23,0.37,0.4,0.64,0.51l0.37,0.14h-3.77l0.37-0.14c0.26-0.11,0.47-0.28,0.64-0.51s0.24-0.49,0.24-0.79V45.9
				c0-0.29-0.08-0.56-0.24-0.79s-0.38-0.4-0.64-0.51l-0.37-0.14h5.81c1.14,0,2.08,0.11,2.8,0.34c0.72,0.22,1.3,0.53,1.71,0.91
				c0.42,0.39,0.7,0.84,0.86,1.35s0.23,1.07,0.23,1.66c0,0.46-0.05,0.91-0.15,1.35s-0.28,0.84-0.53,1.19s-0.6,0.67-1.04,0.94
				c-0.44,0.27-1,0.47-1.68,0.59c0.12,0.03,0.23,0.11,0.31,0.23c0.08,0.12,0.15,0.22,0.2,0.3c0.22,0.4,0.51,0.95,0.89,1.63
				c0.38,0.69,0.75,1.37,1.12,2.05c0.42,0.79,0.86,1.61,1.34,2.48c0.23,0.45,0.59,0.77,1.09,0.97L116.92,60.65z M109.18,52.31v0.02
				c0.57,0,1.12-0.04,1.64-0.13c0.52-0.08,0.99-0.25,1.4-0.51s0.74-0.62,0.98-1.1c0.25-0.48,0.37-1.1,0.37-1.88
				c0-0.77-0.12-1.4-0.37-1.88c-0.25-0.48-0.58-0.84-0.98-1.1c-0.41-0.25-0.88-0.42-1.41-0.51c-0.53-0.08-1.08-0.13-1.63-0.13h-3.33
				v7.2H109.18z"/>
			<path class="st1" d="M129.7,60.49h-0.05c0.17-0.06,0.29-0.17,0.36-0.31c0.07-0.15,0.07-0.3,0.01-0.47l-2.04-4.7h-5.46l-2.04,4.7
				c-0.06,0.15-0.06,0.3,0,0.45c0.06,0.15,0.17,0.26,0.32,0.34l0.46,0.21h-2.69l0.46-0.21c0.45-0.22,0.76-0.55,0.93-1l5.56-12.99
				l5.6,13.06c0.19,0.49,0.54,0.84,1.07,1.04l0.23,0.09h-3.29L129.7,60.49z M122.75,54.42h4.98l-2.5-5.77L122.75,54.42z"/>
			<path class="st1" d="M136.58,60.13c0.15,0.21,0.34,0.36,0.57,0.45l0.32,0.12h-3.29l0.32-0.12c0.23-0.09,0.42-0.24,0.57-0.45
				c0.15-0.21,0.22-0.44,0.22-0.71V47.75c0-0.26-0.07-0.5-0.22-0.71c-0.15-0.21-0.34-0.36-0.57-0.45l-0.32-0.12h3.29l-0.32,0.12
				c-0.23,0.09-0.42,0.24-0.57,0.45c-0.15,0.21-0.22,0.44-0.22,0.71v11.67C136.36,59.68,136.44,59.92,136.58,60.13z"/>
			<path class="st1" d="M149.54,58.31l-0.65,2.36h-9.12l0.32-0.12c0.23-0.09,0.42-0.24,0.57-0.45c0.15-0.21,0.22-0.44,0.22-0.71
				V47.73c0-0.26-0.07-0.5-0.22-0.71c-0.15-0.21-0.33-0.36-0.57-0.45l-0.32-0.12h3.29l-0.32,0.12c-0.23,0.09-0.42,0.24-0.57,0.45
				c-0.15,0.21-0.22,0.44-0.22,0.71v12.36h5.44c0.66,0,1.18-0.27,1.55-0.81L149.54,58.31z"/>
			<path class="st1" d="M163.8,44.47l-0.37,0.14c-0.26,0.11-0.47,0.28-0.64,0.51s-0.24,0.49-0.24,0.79v14.38
				c0,1.06-0.24,1.89-0.73,2.49c-0.49,0.59-1.15,1-1.98,1.22c0.53-0.45,0.9-1,1.13-1.67c0.23-0.66,0.35-1.33,0.35-2.01V45.92
				c0-0.29-0.08-0.56-0.24-0.79s-0.37-0.4-0.64-0.51l-0.37-0.14L163.8,44.47z"/>
			<path class="st1" d="M176.34,46.97c0.89,0.31,1.67,0.76,2.35,1.35c0.68,0.59,1.23,1.33,1.64,2.22c0.42,0.89,0.62,1.91,0.62,3.07
				c0,1.16-0.21,2.18-0.62,3.06c-0.42,0.88-0.96,1.62-1.64,2.21s-1.46,1.05-2.35,1.35c-0.89,0.31-1.81,0.46-2.77,0.46
				c-0.94,0-1.86-0.15-2.75-0.46c-0.9-0.31-1.68-0.76-2.36-1.35c-0.68-0.59-1.23-1.33-1.64-2.21c-0.42-0.88-0.62-1.9-0.62-3.06
				c0-1.16,0.21-2.18,0.62-3.07c0.42-0.89,0.96-1.63,1.64-2.22c0.68-0.59,1.47-1.05,2.36-1.35c0.89-0.31,1.81-0.46,2.75-0.46
				C174.53,46.5,175.45,46.66,176.34,46.97z M176.17,59.6c0.78-0.35,1.44-0.81,1.99-1.4c0.55-0.59,0.97-1.28,1.26-2.07
				c0.29-0.79,0.44-1.63,0.44-2.51s-0.15-1.72-0.44-2.51s-0.71-1.49-1.26-2.07c-0.55-0.59-1.21-1.05-1.99-1.4s-1.65-0.52-2.61-0.52
				c-0.97,0-1.85,0.17-2.63,0.52s-1.44,0.81-1.99,1.4c-0.55,0.59-0.97,1.28-1.26,2.07s-0.44,1.63-0.44,2.51s0.15,1.72,0.44,2.51
				c0.29,0.8,0.71,1.49,1.26,2.07c0.55,0.59,1.21,1.05,1.99,1.4s1.65,0.52,2.63,0.52C174.53,60.12,175.39,59.94,176.17,59.6z"/>
			<path class="st1" d="M195.79,46.48l-0.35,0.16c-0.22,0.11-0.39,0.26-0.52,0.46c-0.13,0.2-0.2,0.42-0.2,0.65v8.2
				c0,0.65-0.12,1.26-0.37,1.84c-0.25,0.58-0.59,1.08-1.02,1.52c-0.43,0.43-0.94,0.77-1.52,1.02c-0.58,0.25-1.19,0.37-1.84,0.37
				h-0.83c-0.65,0-1.26-0.12-1.84-0.37c-0.58-0.25-1.08-0.59-1.52-1.02c-0.43-0.43-0.77-0.94-1.02-1.52
				c-0.25-0.58-0.37-1.19-0.37-1.84v-8.2c0-0.26-0.07-0.5-0.22-0.71c-0.15-0.21-0.34-0.36-0.57-0.45l-0.32-0.12h3.29l-0.32,0.12
				c-0.23,0.09-0.42,0.24-0.57,0.45c-0.15,0.21-0.22,0.44-0.22,0.71v8.2c0,0.63,0.11,1.2,0.32,1.71c0.22,0.51,0.49,0.95,0.82,1.31
				c0.33,0.36,0.71,0.65,1.12,0.85c0.42,0.2,0.82,0.3,1.2,0.3h1.48c0.51,0,0.99-0.12,1.44-0.36c0.45-0.24,0.84-0.56,1.18-0.95
				s0.61-0.84,0.8-1.33c0.19-0.49,0.29-1,0.29-1.5v-8.2c0-0.23-0.06-0.45-0.2-0.65c-0.13-0.2-0.3-0.35-0.52-0.46l-0.35-0.16
				L195.79,46.48z"/>
			<path class="st1" d="M209.92,60.67h-2.13l-3.38-6.18c-0.2-0.35-0.5-0.53-0.9-0.53h-3.26v5.46c0,0.26,0.07,0.5,0.22,0.71
				c0.15,0.21,0.34,0.36,0.57,0.45l0.32,0.12h-3.29l0.32-0.12c0.23-0.09,0.42-0.24,0.57-0.45c0.15-0.21,0.22-0.44,0.22-0.71V47.75
				c0-0.26-0.07-0.5-0.22-0.71c-0.15-0.21-0.34-0.36-0.57-0.45l-0.32-0.12h5.09c1,0,1.82,0.1,2.46,0.29
				c0.63,0.19,1.13,0.46,1.49,0.8c0.36,0.34,0.62,0.74,0.75,1.19c0.14,0.46,0.21,0.94,0.21,1.45c0,0.42-0.04,0.81-0.13,1.19
				s-0.24,0.73-0.46,1.04c-0.22,0.32-0.53,0.59-0.91,0.82c-0.39,0.23-0.88,0.4-1.48,0.51c0.11,0.03,0.2,0.1,0.28,0.2
				c0.08,0.1,0.13,0.19,0.16,0.27c0.09,0.17,0.21,0.38,0.35,0.62c0.14,0.25,0.29,0.52,0.44,0.81s0.32,0.59,0.49,0.9
				c0.17,0.31,0.33,0.61,0.49,0.9c0.37,0.69,0.76,1.42,1.18,2.18c0.21,0.4,0.54,0.69,0.97,0.86L209.92,60.67z M203.13,53.36
				c0.49,0,0.97-0.04,1.44-0.12c0.46-0.08,0.87-0.23,1.23-0.45c0.35-0.22,0.64-0.54,0.86-0.95c0.22-0.41,0.32-0.95,0.32-1.63
				s-0.11-1.22-0.32-1.63c-0.22-0.41-0.5-0.73-0.86-0.95c-0.36-0.22-0.77-0.37-1.23-0.45c-0.46-0.08-0.94-0.12-1.44-0.12h-2.92v6.3
				H203.13z"/>
			<path class="st1" d="M225.11,46.55l-0.35,0.16c-0.22,0.11-0.39,0.26-0.52,0.46c-0.13,0.2-0.2,0.42-0.2,0.65v12.92L213.88,47.8
				v11.67c0,0.23,0.06,0.45,0.2,0.65c0.13,0.2,0.3,0.35,0.52,0.46l0.35,0.16h-2.69l0.35-0.16c0.21-0.11,0.39-0.26,0.52-0.46
				c0.13-0.2,0.2-0.42,0.2-0.65V47.8c0-0.23-0.06-0.45-0.2-0.65c-0.13-0.2-0.3-0.35-0.52-0.46l-0.35-0.16h2.01l9.21,11.71V47.78
				c0-0.23-0.07-0.45-0.2-0.65c-0.13-0.2-0.3-0.35-0.52-0.46l-0.35-0.16L225.11,46.55z"/>
			<path class="st1" d="M237.14,58.33l-0.65,2.36h-9.12l0.32-0.12c0.23-0.09,0.42-0.24,0.57-0.45c0.15-0.21,0.22-0.44,0.22-0.71
				V47.75c0-0.26-0.07-0.5-0.22-0.71c-0.15-0.21-0.34-0.36-0.57-0.45l-0.32-0.12h8.75l0.12,1.78l-0.3-0.56
				c-0.11-0.2-0.26-0.36-0.45-0.47s-0.4-0.17-0.61-0.17h-5.3v6.02h3.4c0.25,0,0.47-0.07,0.67-0.2c0.2-0.13,0.35-0.3,0.46-0.52
				l0.14-0.28v2.43l-0.14-0.28c-0.11-0.22-0.26-0.39-0.46-0.52c-0.2-0.13-0.43-0.2-0.67-0.2h-3.4v6.58h5.44
				c0.66,0,1.18-0.27,1.55-0.81L237.14,58.33z"/>
			<path class="st1" d="M253.05,46.53l-0.32,0.14c-0.42,0.18-0.76,0.47-1.02,0.86l-4.84,7.32v4.58c0,0.26,0.07,0.5,0.22,0.71
				c0.15,0.21,0.33,0.36,0.57,0.45l0.32,0.12h-3.29l0.32-0.12c0.23-0.09,0.42-0.24,0.57-0.45c0.15-0.21,0.22-0.44,0.22-0.71v-4.61
				l-4.84-7.29c-0.28-0.43-0.67-0.74-1.18-0.93l-0.23-0.09h3.29l-0.69,0.25c-0.09,0.03-0.15,0.1-0.19,0.2s-0.02,0.19,0.05,0.27
				l4.58,6.92l4.54-6.88c0.05-0.08,0.05-0.16,0.02-0.25c-0.03-0.09-0.09-0.15-0.16-0.19l-0.7-0.32L253.05,46.53z"/>
			<path class="st1" d="M260.6,52.85c0.46,0.25,0.93,0.49,1.39,0.73s0.88,0.51,1.24,0.82c0.36,0.31,0.66,0.67,0.88,1.09
				c0.22,0.42,0.34,0.93,0.34,1.53c0,0.54-0.14,1.04-0.42,1.49c-0.28,0.46-0.65,0.85-1.12,1.17c-0.47,0.32-1.01,0.58-1.62,0.76
				c-0.61,0.19-1.25,0.28-1.91,0.28c-0.49,0-1.04-0.07-1.65-0.2c-0.61-0.13-1.23-0.45-1.87-0.96c-0.04-0.05-0.11-0.07-0.18-0.07
				c-0.11,0-0.19,0.05-0.26,0.16l-0.14,0.23V57.8l0.44,0.74c0.19,0.29,0.42,0.54,0.7,0.75c0.28,0.21,0.58,0.38,0.91,0.51
				s0.68,0.22,1.03,0.28c0.35,0.05,0.69,0.08,1.02,0.08c0.49,0,0.98-0.07,1.45-0.2c0.47-0.13,0.89-0.33,1.26-0.59
				c0.37-0.26,0.67-0.59,0.89-0.98c0.22-0.39,0.34-0.85,0.34-1.35c0-0.36-0.11-0.68-0.32-0.97c-0.21-0.29-0.5-0.56-0.84-0.81
				c-0.35-0.25-0.73-0.48-1.16-0.69c-0.42-0.22-0.85-0.44-1.26-0.67c-0.46-0.25-0.93-0.5-1.41-0.75s-0.91-0.53-1.31-0.82
				c-0.39-0.29-0.72-0.62-0.97-0.97c-0.25-0.35-0.38-0.76-0.38-1.23c0-0.54,0.12-1.03,0.35-1.48c0.23-0.45,0.55-0.83,0.95-1.13
				c0.4-0.31,0.88-0.55,1.45-0.72c0.56-0.17,1.18-0.25,1.84-0.25c0.45,0,0.9,0.05,1.37,0.16c0.46,0.11,0.9,0.26,1.32,0.46
				c0.03,0.02,0.08,0.02,0.14,0.02c0.11,0,0.19-0.05,0.23-0.14l0.18-0.3v2.08l-0.25-0.44c-0.34-0.57-0.77-0.93-1.3-1.08
				c-0.53-0.15-1.09-0.22-1.69-0.22c-0.48,0-0.93,0.06-1.37,0.17c-0.43,0.12-0.8,0.28-1.11,0.49c-0.31,0.21-0.55,0.45-0.74,0.73
				c-0.19,0.28-0.28,0.59-0.28,0.93c0,0.48,0.13,0.88,0.38,1.22c0.26,0.33,0.57,0.62,0.95,0.88c0.38,0.25,0.79,0.49,1.25,0.69
				c0.46,0.21,0.89,0.42,1.31,0.64L260.6,52.85z"/>
		</g>
	</g>
</g>
</svg>
