<svg width="21" height="21" viewBox="0 0 21 21" fill="none" xmlns="http://www.w3.org/2000/svg">
<path d="M20.6626 19.4491L14.1701 12.9567C15.1776 11.6542 15.7226 10.0617 15.7226 8.38669C15.7226 6.3817 14.9401 4.5017 13.5251 3.08421C12.1101 1.66672 10.2251 0.886719 8.22262 0.886719C6.22013 0.886719 4.33514 1.66922 2.92015 3.08421C1.50265 4.4992 0.722656 6.3817 0.722656 8.38669C0.722656 10.3892 1.50515 12.2742 2.92015 13.6892C4.33514 15.1067 6.21763 15.8867 8.22262 15.8867C9.89762 15.8867 11.4876 15.3417 12.7901 14.3367L19.2826 20.8266C19.3016 20.8457 19.3242 20.8608 19.3491 20.8711C19.374 20.8814 19.4006 20.8867 19.4276 20.8867C19.4545 20.8867 19.4812 20.8814 19.5061 20.8711C19.5309 20.8608 19.5535 20.8457 19.5726 20.8266L20.6626 19.7391C20.6816 19.7201 20.6967 19.6975 20.707 19.6726C20.7174 19.6477 20.7227 19.6211 20.7227 19.5941C20.7227 19.5672 20.7174 19.5405 20.707 19.5157C20.6967 19.4908 20.6816 19.4682 20.6626 19.4491ZM12.1826 12.3467C11.1226 13.4042 9.71762 13.9867 8.22262 13.9867C6.72763 13.9867 5.32264 13.4042 4.26264 12.3467C3.20515 11.2867 2.62265 9.88168 2.62265 8.38669C2.62265 6.89169 3.20515 5.4842 4.26264 4.4267C5.32264 3.36921 6.72763 2.78671 8.22262 2.78671C9.71762 2.78671 11.1251 3.36671 12.1826 4.4267C13.2401 5.4867 13.8226 6.89169 13.8226 8.38669C13.8226 9.88168 13.2401 11.2892 12.1826 12.3467Z" fill="#1E194E"/>
</svg>
