<svg width="41" height="41" viewBox="0 0 41 41" fill="none" xmlns="http://www.w3.org/2000/svg">
<g filter="url(#filter0_d_1187_3739)">
<path d="M28.3971 23.1374C27.0304 23.1374 25.7082 22.9152 24.4748 22.5152C24.086 22.3818 23.6526 22.4818 23.3526 22.7818L21.6082 24.9707C18.4637 23.4707 15.5193 20.6374 13.9526 17.3818L16.1193 15.5374C16.4193 15.2263 16.5082 14.7929 16.386 14.4041C15.9748 13.1707 15.7637 11.8485 15.7637 10.4818C15.7637 9.88184 15.2637 9.38184 14.6637 9.38184H10.8193C10.2193 9.38184 9.49707 9.6485 9.49707 10.4818C9.49707 20.8041 18.086 29.3818 28.3971 29.3818C29.186 29.3818 29.4971 28.6818 29.4971 28.0707V24.2374C29.4971 23.6374 28.9971 23.1374 28.3971 23.1374Z" fill="white"/>
</g>
<defs>
<filter id="filter0_d_1187_3739" x="0.49707" y="0.381836" width="40" height="40" filterUnits="userSpaceOnUse" color-interpolation-filters="sRGB">
<feFlood flood-opacity="0" result="BackgroundImageFix"/>
<feColorMatrix in="SourceAlpha" type="matrix" values="0 0 0 0 0 0 0 0 0 0 0 0 0 0 0 0 0 0 127 0" result="hardAlpha"/>
<feOffset dx="1" dy="1"/>
<feGaussianBlur stdDeviation="5"/>
<feComposite in2="hardAlpha" operator="out"/>
<feColorMatrix type="matrix" values="0 0 0 0 1 0 0 0 0 1 0 0 0 0 1 0 0 0 1 0"/>
<feBlend mode="normal" in2="BackgroundImageFix" result="effect1_dropShadow_1187_3739"/>
<feBlend mode="normal" in="SourceGraphic" in2="effect1_dropShadow_1187_3739" result="shape"/>
</filter>
</defs>
</svg>
