<svg width="21" height="21" viewBox="0 0 21 21" fill="none" xmlns="http://www.w3.org/2000/svg">
<path d="M17.814 11.6969C17.8557 11.3844 17.8765 11.0615 17.8765 10.7178C17.8765 10.3844 17.8557 10.0511 17.8036 9.73861L19.9182 8.09277C20.1057 7.94694 20.1577 7.66569 20.0432 7.45736L18.0432 3.99902C17.9182 3.76986 17.6577 3.69694 17.4286 3.76986L14.939 4.76986C14.4182 4.37402 13.8661 4.04069 13.2515 3.79069L12.8765 1.14486C12.8348 0.894857 12.6265 0.717773 12.3765 0.717773H8.3765C8.1265 0.717773 7.92858 0.894857 7.88691 1.14486L7.51191 3.79069C6.89733 4.04069 6.33483 4.38444 5.82441 4.76986L3.33483 3.76986C3.10566 3.68652 2.84525 3.76986 2.72025 3.99902L0.730664 7.45736C0.605664 7.67611 0.647331 7.94694 0.855664 8.09277L2.97025 9.73861C2.91816 10.0511 2.8765 10.3949 2.8765 10.7178C2.8765 11.0407 2.89733 11.3844 2.94941 11.6969L0.834831 13.3428C0.647331 13.4886 0.595248 13.7699 0.709831 13.9782L2.70983 17.4365C2.83483 17.6657 3.09525 17.7386 3.32441 17.6657L5.814 16.6657C6.33483 17.0615 6.88691 17.3949 7.5015 17.6449L7.8765 20.2907C7.92858 20.5407 8.1265 20.7178 8.3765 20.7178H12.3765C12.6265 20.7178 12.8348 20.5407 12.8661 20.2907L13.2411 17.6449C13.8557 17.3949 14.4182 17.0615 14.9286 16.6657L17.4182 17.6657C17.6473 17.749 17.9077 17.6657 18.0327 17.4365L20.0327 13.9782C20.1577 13.749 20.1057 13.4886 19.9077 13.3428L17.814 11.6969ZM10.3765 14.4678C8.314 14.4678 6.6265 12.7803 6.6265 10.7178C6.6265 8.65527 8.314 6.96777 10.3765 6.96777C12.439 6.96777 14.1265 8.65527 14.1265 10.7178C14.1265 12.7803 12.439 14.4678 10.3765 14.4678Z" fill="#4A43A0"/>
</svg>
