<svg width="14" height="13" viewBox="0 0 14 13" fill="none" xmlns="http://www.w3.org/2000/svg">
<path d="M13.2635 12.6526C12.8018 12.6735 7.14319 12.6526 7.14319 12.6526C7.14319 12.6526 1.48537 12.6735 1.02366 12.6526C0.562748 12.6326 0.606911 11.9998 0.879925 11.8938C2.01454 11.6449 2.50998 10.1819 2.57181 8.35749C2.63284 6.53312 2.34617 5.90759 3.12506 4.12417C3.90396 2.34075 5.61592 1.57149 6.32334 1.50002C6.32896 0.608713 7.13998 0.60791 7.14319 0.60791C7.1464 0.60791 7.95821 0.608713 7.96384 1.50002C8.67126 1.57149 10.3824 2.34075 11.1621 4.12417C11.941 5.90759 11.6535 6.53312 11.7154 8.35749C11.7772 10.1819 12.2726 11.6449 13.4065 11.8938C13.6803 11.9998 13.7244 12.6326 13.2635 12.6526Z" fill="white"/>
</svg>
